<svg width="32" height="32" viewBox="0 0 32 32" fill="none" xmlns="http://www.w3.org/2000/svg">
<rect width="32" height="32" rx="8" fill="#A30D11"/>
<path d="M10 12H11.3333H22" stroke="white" stroke-width="2" stroke-linecap="round" stroke-linejoin="round"/>
<path d="M13.3333 12V10.6667C13.3333 10.3131 13.4737 9.97392 13.7238 9.72387C13.9738 9.47382 14.313 9.33334 14.6666 9.33334H17.3333C17.6869 9.33334 18.026 9.47382 18.2761 9.72387C18.5261 9.97392 18.6666 10.3131 18.6666 10.6667V12M20.6666 12V21.3333C20.6666 21.687 20.5261 22.0261 20.2761 22.2762C20.026 22.5262 19.6869 22.6667 19.3333 22.6667H12.6666C12.313 22.6667 11.9738 22.5262 11.7238 22.2762C11.4737 22.0261 11.3333 21.687 11.3333 21.3333V12H20.6666Z" stroke="white" stroke-width="2" stroke-linecap="round" stroke-linejoin="round"/>
<path d="M14.6667 15.3333V19.3333" stroke="white" stroke-width="2" stroke-linecap="round" stroke-linejoin="round"/>
<path d="M17.3333 15.3333V19.3333" stroke="white" stroke-width="2" stroke-linecap="round" stroke-linejoin="round"/>
</svg>
