<svg width="32" height="32" viewBox="0 0 32 32" fill="none" xmlns="http://www.w3.org/2000/svg">
<rect width="32" height="32" rx="8" fill="#E3C24D"/>
<g clip-path="url(#clip0_257_658)">
<path d="M15.3333 10.6667H10.6666C10.313 10.6667 9.97382 10.8071 9.72378 11.0572C9.47373 11.3072 9.33325 11.6464 9.33325 12V21.3333C9.33325 21.6869 9.47373 22.0261 9.72378 22.2761C9.97382 22.5262 10.313 22.6667 10.6666 22.6667H19.9999C20.3535 22.6667 20.6927 22.5262 20.9427 22.2761C21.1928 22.0261 21.3333 21.6869 21.3333 21.3333V16.6667" stroke="white" stroke-width="2" stroke-linecap="round" stroke-linejoin="round"/>
<path d="M20.3333 9.66665C20.5985 9.40144 20.9582 9.25244 21.3333 9.25244C21.7083 9.25244 22.068 9.40144 22.3333 9.66665C22.5985 9.93187 22.7475 10.2916 22.7475 10.6667C22.7475 11.0417 22.5985 11.4014 22.3333 11.6667L15.9999 18L13.3333 18.6667L13.9999 16L20.3333 9.66665Z" stroke="white" stroke-width="2" stroke-linecap="round" stroke-linejoin="round"/>
</g>
<defs>
<clipPath id="clip0_257_658">
<rect width="16" height="16" fill="white" transform="translate(8 8)"/>
</clipPath>
</defs>
</svg>
