<svg width="27" height="27" viewBox="0 0 27 27" fill="none" xmlns="http://www.w3.org/2000/svg">
<path d="M3.0656 23.625C2.85935 23.625 2.67185 23.5736 2.5031 23.4709C2.33435 23.3681 2.2031 23.232 2.10935 23.0625C2.0156 22.893 1.96423 22.71 1.95523 22.5135C1.94623 22.317 1.9976 22.125 2.10935 21.9375L12.5156 3.9375C12.6281 3.75 12.7736 3.60937 12.9521 3.51562C13.1306 3.42187 13.3132 3.375 13.5 3.375C13.6867 3.375 13.8697 3.42187 14.049 3.51562C14.2282 3.60937 14.3734 3.75 14.4844 3.9375L24.8906 21.9375C25.0031 22.125 25.0549 22.3174 25.0459 22.5146C25.0369 22.7119 24.9851 22.8945 24.8906 23.0625C24.7961 23.2305 24.6649 23.3666 24.4969 23.4709C24.3289 23.5751 24.1414 23.6265 23.9344 23.625H3.0656ZM13.5 20.25C13.8187 20.25 14.0861 20.142 14.3021 19.926C14.5181 19.71 14.6257 19.443 14.625 19.125C14.6242 18.807 14.5162 18.54 14.301 18.324C14.0857 18.108 13.8187 18 13.5 18C13.1812 18 12.9142 18.108 12.699 18.324C12.4837 18.54 12.3757 18.807 12.375 19.125C12.3742 19.443 12.4822 19.7104 12.699 19.9271C12.9157 20.1439 13.1827 20.2515 13.5 20.25ZM13.5 16.875C13.8187 16.875 14.0861 16.767 14.3021 16.551C14.5181 16.335 14.6257 16.068 14.625 15.75V12.375C14.625 12.0562 14.517 11.7892 14.301 11.574C14.085 11.3587 13.818 11.2507 13.5 11.25C13.182 11.2492 12.915 11.3572 12.699 11.574C12.483 11.7907 12.375 12.0577 12.375 12.375V15.75C12.375 16.0687 12.483 16.3361 12.699 16.5521C12.915 16.7681 13.182 16.8757 13.5 16.875Z" fill="white"/>
</svg>
