<svg width="27" height="27" viewBox="0 0 27 27" fill="none" xmlns="http://www.w3.org/2000/svg">
<path d="M5.625 21.375C5.30625 21.375 5.03925 21.267 4.824 21.051C4.60875 20.835 4.50075 20.568 4.5 20.25C4.49925 19.932 4.60725 19.665 4.824 19.449C5.04075 19.233 5.30775 19.125 5.625 19.125H6.75V11.25C6.75 9.69375 7.21875 8.31113 8.15625 7.10213C9.09375 5.89313 10.3125 5.10075 11.8125 4.725V3.9375C11.8125 3.46875 11.9768 3.0705 12.3053 2.74275C12.6338 2.415 13.032 2.25075 13.5 2.25C13.968 2.24925 14.3666 2.4135 14.6959 2.74275C15.0251 3.072 15.189 3.47025 15.1875 3.9375V4.725C16.6875 5.1 17.9063 5.89238 18.8438 7.10213C19.7813 8.31188 20.25 9.6945 20.25 11.25V19.125H21.375C21.6938 19.125 21.9611 19.233 22.1771 19.449C22.3931 19.665 22.5008 19.932 22.5 20.25C22.4993 20.568 22.3913 20.8354 22.176 21.0521C21.9608 21.2689 21.6938 21.3765 21.375 21.375H5.625ZM13.5 24.75C12.8813 24.75 12.3518 24.5299 11.9115 24.0896C11.4713 23.6494 11.2508 23.1195 11.25 22.5H15.75C15.75 23.1188 15.5299 23.6486 15.0896 24.0896C14.6494 24.5306 14.1195 24.7508 13.5 24.75ZM9 19.125H18V11.25C18 10.0125 17.5594 8.95313 16.6781 8.07188C15.7969 7.19063 14.7375 6.75 13.5 6.75C12.2625 6.75 11.2031 7.19063 10.3219 8.07188C9.44063 8.95313 9 10.0125 9 11.25V19.125Z" fill="#553776"/>
</svg>
