<svg width="27" height="27" viewBox="0 0 27 27" fill="none" xmlns="http://www.w3.org/2000/svg">
<path d="M13.5 18C12.8813 18 12.3518 17.7799 11.9115 17.3396C11.4713 16.8994 11.2508 16.3695 11.25 15.75C11.2492 15.1305 11.4698 14.601 11.9115 14.1615C12.3533 13.722 12.8827 13.5015 13.5 13.5C14.1173 13.4985 14.6471 13.719 15.0896 14.1615C15.5321 14.604 15.7522 15.1335 15.75 15.75C15.7478 16.3665 15.5276 16.8964 15.0896 17.3396C14.6516 17.7829 14.1217 18.003 13.5 18ZM8.29688 7.875H18.7031L20.1375 5.00625C20.325 4.63125 20.3107 4.26562 20.0947 3.90937C19.8787 3.55312 19.5555 3.375 19.125 3.375H7.875C7.44375 3.375 7.1205 3.55312 6.90525 3.90937C6.69 4.26562 6.67575 4.63125 6.8625 5.00625L8.29688 7.875ZM9.45 23.625H17.55C19.2375 23.625 20.6719 23.0392 21.8531 21.8678C23.0344 20.6962 23.625 19.257 23.625 17.55C23.625 16.8375 23.5031 16.1438 23.2594 15.4688C23.0156 14.7937 22.6688 14.1844 22.2188 13.6406L19.2937 10.125H7.70625L4.78125 13.6406C4.33125 14.1844 3.98438 14.7937 3.74063 15.4688C3.49688 16.1438 3.375 16.8375 3.375 17.55C3.375 19.2563 3.96113 20.6955 5.13338 21.8678C6.30563 23.04 7.7445 23.6257 9.45 23.625Z" fill="white"/>
</svg>
