<svg width="32" height="32" viewBox="0 0 32 32" fill="none" xmlns="http://www.w3.org/2000/svg">
<rect width="32" height="32" rx="8" fill="#4DE373"/>
<path d="M16 20.5L19 17.5L17.95 16.45L16.75 17.65V14.5H15.25V17.65L14.05 16.45L13 17.5L16 20.5ZM10.75 13V21.25H21.25V13H10.75ZM10.75 22.75C10.3375 22.75 9.9845 22.6033 9.691 22.3098C9.3975 22.0163 9.2505 21.663 9.25 21.25V11.8938C9.25 11.7188 9.27825 11.55 9.33475 11.3875C9.39125 11.225 9.4755 11.075 9.5875 10.9375L10.525 9.79375C10.6625 9.61875 10.8343 9.48425 11.0403 9.39025C11.2463 9.29625 11.462 9.2495 11.6875 9.25H20.3125C20.5375 9.25 20.7533 9.297 20.9598 9.391C21.1663 9.485 21.338 9.61925 21.475 9.79375L22.4125 10.9375C22.525 11.075 22.6095 11.225 22.666 11.3875C22.7225 11.55 22.7505 11.7188 22.75 11.8938V21.25C22.75 21.6625 22.6033 22.0158 22.3098 22.3098C22.0163 22.6038 21.663 22.7505 21.25 22.75H10.75ZM11.05 11.5H20.95L20.3125 10.75H11.6875L11.05 11.5Z" fill="white"/>
</svg>
