<svg width="32" height="32" viewBox="0 0 32 32" fill="none" xmlns="http://www.w3.org/2000/svg">
<rect width="32" height="32" rx="8" fill="#624DE3"/>
<path d="M8.05 16.2784C7.98333 16.0988 7.98333 15.9012 8.05 15.7216C8.69933 14.1472 9.80153 12.801 11.2169 11.8537C12.6322 10.9065 14.2969 10.4008 16 10.4008C17.7031 10.4008 19.3678 10.9065 20.7831 11.8537C22.1985 12.801 23.3007 14.1472 23.95 15.7216C24.0167 15.9012 24.0167 16.0988 23.95 16.2784C23.3007 17.8528 22.1985 19.199 20.7831 20.1463C19.3678 21.0935 17.7031 21.5992 16 21.5992C14.2969 21.5992 12.6322 21.0935 11.2169 20.1463C9.80153 19.199 8.69933 17.8528 8.05 16.2784Z" stroke="white" stroke-width="2" stroke-linecap="round" stroke-linejoin="round"/>
<path d="M16.0005 18.3999C17.3259 18.3999 18.4003 17.3254 18.4003 16C18.4003 14.6746 17.3259 13.6001 16.0005 13.6001C14.675 13.6001 13.6006 14.6746 13.6006 16C13.6006 17.3254 14.675 18.3999 16.0005 18.3999Z" stroke="white" stroke-width="2" stroke-linecap="round" stroke-linejoin="round"/>
</svg>
